HIERARCHY
ROOT Hips
{
     OFFSET 1.88212 96.90440 -13.34250
     CHANNELS 6 Xposition Yposition Zposition Zrotation Xrotation Yrotation
     JOINT Spine
     {
          OFFSET 0.00000 11.89050 0.00000
          CHANNELS 3 Zrotation Xrotation Yrotation
          JOINT Spine1
          {
               OFFSET -0.00000 25.65740 0.12766
               CHANNELS 3 Zrotation Xrotation Yrotation
               JOINT HEad
               {
                    OFFSET 0.00000 8.73416 0.01134
                    CHANNELS 3 Zrotation Xrotation Yrotation
                    End Site
                    {
                         OFFSET -0.29000 12.77420 2.51395
                    }
               }
               JOINT LeftShoulder1
               {
                    OFFSET 8.99000 -0.36225 -0.22000
                    CHANNELS 3 Zrotation Xrotation Yrotation
                    JOINT LeftArm
                    {
                         OFFSET 10.28270 -0.00338 0.32212
                         CHANNELS 3 Zrotation Xrotation Yrotation
                         JOINT LeftForeArm
                         {
                              OFFSET 32.76690 0.09914 -1.42434
                              CHANNELS 3 Zrotation Xrotation Yrotation
                              JOINT LeftHand
                              {
                                   OFFSET 27.56430 0.08536 1.02216
                                   CHANNELS 3 Zrotation Xrotation Yrotation
                                   End Site
                                   {
                                        OFFSET 16.74430 -0.60000 1.50291
                                   }
                              }
                         }
                    }
               }
               JOINT RightShoulder
               {
                    OFFSET -8.99000 -0.36225 -0.22000
                    CHANNELS 3 Zrotation Xrotation Yrotation
                    JOINT RightArm
                    {
                         OFFSET -10.28270 -0.00338 0.32212
                         CHANNELS 3 Zrotation Xrotation Yrotation
                         JOINT RightForeArm
                         {
                              OFFSET -32.89710 0.09914 -1.42434
                              CHANNELS 3 Zrotation Xrotation Yrotation
                              JOINT RightHand
                              {
                                   OFFSET -27.49210 0.08536 1.02216
                                   CHANNELS 3 Zrotation Xrotation Yrotation
                                   End Site
                                   {
                                        OFFSET -16.63120 -0.60000 1.50291
                                   }
                              }
                         }
                    }
               }
          }
     }
     JOINT LeftUpLeg
     {
          OFFSET 8.94580 -8.66707 0.10165
          CHANNELS 3 Zrotation Xrotation Yrotation
          JOINT LeftLeg
          {
               OFFSET 0.00000 -44.42270 1.37270
               CHANNELS 3 Zrotation Xrotation Yrotation
               JOINT LeftFoot
               {
                    OFFSET -0.25355 -42.09240 -1.46059
                    CHANNELS 3 Zrotation Xrotation Yrotation
                    JOINT LeftToes
                    {
                         OFFSET -0.04000 -4.41509 8.49910
                         CHANNELS 3 Zrotation Xrotation Yrotation
                         End Site
                         {
                              OFFSET 0.08000 -0.04745 9.77979
                         }
                    }
               }
          }
     }
     JOINT RightUpLeg
     {
          OFFSET -8.94580 -8.66707 0.10165
          CHANNELS 3 Zrotation Xrotation Yrotation
          JOINT RightLeg
          {
               OFFSET 0.00000 -44.42270 1.37270
               CHANNELS 3 Zrotation Xrotation Yrotation
               JOINT RightFoot
               {
                    OFFSET 0.25355 -42.09240 -1.46059
                    CHANNELS 3 Zrotation Xrotation Yrotation
                    JOINT RightToes
                    {
                         OFFSET 0.04000 -4.41509 8.49910
                         CHANNELS 3 Zrotation Xrotation Yrotation
                         End Site
                         {
                              OFFSET -0.08000 -0.13745 9.77979
                         }
                    }
               }
          }
     }
}
MOTION
Frames: 20
Frame Time: 0.01667
29.87595 89.81244 -1.59816 9.51855 33.19210 -167.05190 8.45438 43.22181 -8.71868 0.00983 0.01941 -0.01366 12.99814 9.11442 -17.26040 1.73056 6.01894 3.15500 -82.74716 -12.51539 -73.07540 -29.50492 37.64042 -89.29360 16.14960 8.54099 -10.31391 30.47926 24.47490 -13.20850 96.50364 -22.45251 103.71397 6.45286 30.53965 100.23040 15.09410 9.64296 2.85201 17.98635 3.98792 -16.61432 -34.35018 14.46040 78.45622 4.81235 -0.00183 -0.00470 -1.90298 -25.95866 -76.66267 -12.27009 -47.96537 -53.85485 250.80844 58.94326 -247.59006 3.76491 0.03214 -0.05553 2.47671 36.82970 6.99413 
29.64732 89.27569 -0.47871 9.72541 29.22003 -169.06050 7.33750 43.08316 -8.30557 -0.00522 -0.01104 -0.00285 11.93679 7.11742 -14.95573 2.50254 5.47773 3.92894 -85.35230 -15.31898 -74.37302 -30.38934 39.02331 -88.23275 18.05257 13.79780 -9.21288 25.62346 22.19082 -9.56237 97.20741 -21.23246 100.82928 6.29813 31.05186 100.21133 17.51582 5.26432 3.98896 16.77684 0.10756 -14.00183 -33.77054 13.82890 78.61179 5.28768 0.00058 -0.00029 4.24915 -22.79621 -75.49488 -2.43459 -45.56307 -49.67607 274.50507 53.58886 -273.10629 4.56797 0.02250 -0.03147 4.00348 34.55009 5.26880 
29.38057 88.81022 0.61946 9.38175 24.85404 -171.16083 5.36200 42.30899 -7.30042 -0.00689 -0.01416 -0.00248 10.65047 5.62603 -12.47525 2.94126 4.39232 5.25479 -88.03902 -18.92916 -75.22251 -31.11352 40.53356 -87.26390 20.51192 20.80428 -7.50855 19.66496 16.70433 -4.41658 96.94060 -21.03126 94.32665 6.31013 31.65831 99.57917 21.20019 -0.36358 6.46531 15.48458 -4.10560 -11.43634 -33.28338 13.19334 78.53495 5.47365 0.00040 0.00117 8.89588 -20.23807 -74.13966 6.49629 -41.91775 -45.08733 290.31329 44.62662 -291.83609 5.43056 0.02947 -0.05500 3.85129 29.71357 2.87003 
29.08747 88.58611 1.60126 8.52205 20.22511 -173.39723 2.72989 40.82705 -5.90175 -0.00687 -0.01268 -0.00121 9.08258 4.72107 -9.86409 3.11964 3.05891 6.89266 -90.92527 -23.38118 -75.88148 -31.60700 42.24319 -86.47765 22.90575 28.12447 -5.76461 15.28640 11.61714 -0.90073 95.56477 -19.07298 88.25470 6.63584 32.20969 98.19428 25.65899 -5.61889 10.32141 14.16640 -8.47727 -8.96016 -32.86996 12.51627 78.21235 5.34353 -0.00226 0.00322 12.56218 -18.10959 -72.51830 13.78804 -37.36727 -40.66542 300.22614 34.44511 -305.81921 6.02892 0.03114 -0.04302 2.53305 23.11488 0.49192 
28.77666 88.72040 2.34982 6.25516 15.08540 -176.19949 -1.86040 37.64463 -3.27869 -0.01281 -0.03221 0.00418 6.48414 5.57349 -6.63264 2.09116 0.96744 8.20871 -93.90981 -31.19889 -76.23503 -30.69620 44.94771 -86.52772 23.87989 34.27473 -4.67523 13.83222 9.01693 1.01055 90.72595 -13.46113 83.83846 8.18221 32.30120 94.59825 17.56609 7.30892 8.51508 12.42209 -12.67882 -6.62317 -32.21699 12.11433 76.87749 3.69269 -0.04209 0.02699 14.02915 -16.85160 -69.78300 18.21236 -32.28959 -35.17190 306.70038 27.43496 -319.68845 4.84692 -0.02093 -0.06829 -0.79831 11.88186 -0.90879 
28.47633 89.19183 2.81902 4.21838 10.93052 -178.73849 -5.39096 34.15405 -1.41234 -0.00950 -0.02525 0.00271 2.80677 7.71283 -2.70935 1.29925 -0.14573 9.09347 -99.58200 -40.75954 -78.91750 -28.49397 48.65633 -87.39464 19.42006 15.74158 -7.74900 12.73947 7.36160 2.15842 85.24418 -5.65096 80.45997 11.09027 31.18385 89.78806 16.89329 11.43983 8.99104 11.40311 -15.74860 -5.91970 -31.48612 11.57441 74.81522 0.96076 -0.10469 0.03391 16.98297 -14.43930 -65.93288 20.01400 -26.44519 -30.79667 313.03799 22.97396 -334.38687 1.65893 -0.19365 -0.07678 -2.16577 -0.37478 0.40468 
28.21776 89.91692 2.97932 2.50719 7.70944 -180.96378 -7.99392 30.60500 -0.09844 -0.01048 -0.01490 0.00292 -1.94611 10.69153 2.06090 0.66511 -0.38683 9.37387 -109.45348 -50.79841 -85.77567 -24.62401 53.23891 -89.61300 18.01875 12.74638 -7.68507 12.02989 6.58003 3.05496 81.72214 -0.50593 78.68884 12.62129 29.10593 87.63837 12.11405 19.97089 8.55121 10.97415 -17.35922 -6.61037 -30.34049 10.93359 71.68340 -3.66943 -0.23586 0.03383 20.14755 -11.98046 -60.94651 19.56797 -20.97207 -27.23067 320.34857 19.45977 -349.15744 -2.32009 -0.26720 -0.07201 0.18418 1.33913 11.45778 
28.01619 90.79128 2.83481 1.15293 5.32199 -182.86508 -9.86413 27.14734 0.85991 -0.01063 -0.00511 0.00221 -6.51974 13.66336 6.66092 0.21275 0.10639 9.05713 -126.96700 -59.40701 -100.42686 -27.34996 60.16982 -88.88901 15.14621 1.46484 -10.10251 11.80681 6.55710 3.63286 79.30859 2.97069 77.60154 12.90231 27.23920 87.05402 13.81391 19.96169 8.21200 10.86873 -17.83545 -8.45421 -29.12694 9.38917 68.30783 -8.68994 -0.29126 0.00004 24.00750 -9.45184 -55.34232 17.49916 -15.76917 -23.99265 329.68689 15.99260 -361.45554 -5.41756 -0.20158 0.02925 -1.37758 -18.02780 6.94616 
27.83369 91.69859 2.44180 0.15153 3.64802 -184.44960 -11.17364 23.85185 1.61166 -0.01065 0.00229 0.00141 -10.82382 16.56568 11.12117 -0.13018 1.19799 8.58009 -143.51700 -63.06833 -115.46242 -30.08757 64.92451 -87.62457 15.36246 2.51819 -9.31291 11.96872 7.16578 3.89182 77.68426 5.34143 76.79226 12.33504 25.87330 87.26453 11.98628 23.03496 8.11264 10.38718 -18.14252 -10.66576 -27.12522 8.59747 64.89919 -14.32043 -0.32684 -0.03706 27.95801 -7.26595 -49.60741 14.13792 -10.77674 -20.74271 340.74033 12.19257 -371.21722 -11.56212 -0.27032 -0.01524 1.71264 -11.04490 16.89893 
27.60189 92.54339 1.87879 -0.52756 2.56618 -185.72926 -12.04919 20.75492 2.23988 -0.00947 0.00874 0.00040 -14.80016 19.35233 15.43056 -0.45450 2.75427 8.11584 -155.74713 -64.08828 -127.10063 -32.81468 67.92217 -85.81758 14.31312 -2.01324 -10.57706 12.40367 8.27531 3.82773 76.66132 6.96909 76.06614 11.22323 25.08047 87.88225 13.58924 21.75612 7.84691 9.51208 -18.30997 -13.15016 -24.46625 8.70601 62.20127 -20.59132 -0.31662 -0.07903 32.07615 -5.62678 -44.50315 9.77865 -6.04641 -17.18963 350.63165 7.60475 -378.30267 -16.05583 -0.12679 0.00597 2.92223 -16.30834 17.00252 
27.23067 93.26038 1.21860 -0.93934 1.96077 -186.71609 -12.58664 17.87815 2.77498 -0.00804 0.01526 -0.00054 -18.41595 21.99243 19.54945 -0.76228 4.65984 7.63467 -163.34575 -64.15379 -134.67694 -35.14817 69.62585 -83.88840 14.80458 -0.02908 -9.86037 12.98091 9.75283 3.48289 76.12077 8.00711 75.37286 9.84436 24.71042 88.69553 12.71187 22.52135 7.93673 8.37990 -18.22910 -15.76502 -22.55635 8.11778 60.61681 -25.41797 -0.19034 -0.08608 36.15992 -5.05601 -40.29242 4.63270 -1.69988 -13.12839 359.87115 2.85287 -383.72482 -20.22654 -0.06025 0.02049 3.95644 -14.86960 19.68876 
26.64557 93.80992 0.49148 -1.14297 1.73969 -187.40479 -12.84599 15.24743 3.20046 -0.00664 0.02139 -0.00138 -21.66456 24.47498 23.42442 -1.03622 6.81820 7.11988 -167.47345 -64.06180 -139.07770 -36.68945 70.42333 -82.40128 14.40308 -1.60869 -10.47883 13.61482 11.48486 2.90895 75.94167 8.55144 74.69444 8.37865 24.65591 89.62018 13.76083 21.04649 7.93159 7.16266 -17.79610 -18.38744 -21.13065 7.31141 59.87085 -29.40990 -0.10962 -0.06996 40.16196 -5.11882 -37.05445 -1.16491 1.76338 -8.47749 370.01135 -0.76194 -387.38080 -30.87947 0.12590 0.00857 10.59125 -17.55387 18.53231 
25.82497 94.18540 -0.26126 -1.20009 1.82036 -187.83867 -12.99692 13.26495 3.49505 -0.00456 0.02269 -0.00163 -24.41708 26.40638 26.87778 -1.20152 8.74006 6.62941 -169.18379 -64.08936 -141.19034 -37.21572 70.59373 -81.66664 14.80554 0.29386 -9.91074 14.27826 13.00137 2.30833 76.02354 8.67612 74.05350 6.97570 24.76998 90.59882 13.27974 20.84484 8.13634 5.89783 -17.11717 -20.91192 -19.67412 7.71472 61.58443 -34.17934 -0.00618 -0.05468 43.99656 -6.29188 -36.46003 -7.52990 4.36067 -3.21732 379.38293 -4.58433 -390.82651 -30.05237 0.00836 0.01220 6.24954 -17.91466 18.12976 
24.81121 94.40295 -1.00405 -1.16074 2.14348 -188.07614 -13.08020 11.85972 3.68955 -0.00277 0.02324 -0.00180 -26.66219 27.87555 29.82211 -1.27551 10.41863 6.15815 -169.24251 -64.28846 -141.68030 -36.79232 70.33871 -81.74354 14.66730 -0.03124 -10.11806 14.92549 14.29519 1.71244 76.27363 8.45501 73.46587 5.71832 24.98003 91.60274 13.96829 19.47096 8.28321 5.32178 -15.93878 -22.13359 -19.48930 7.43045 64.44138 -30.26579 -0.05778 -0.03002 39.89652 -8.26363 -38.35530 -14.29717 5.89220 2.59766 388.38654 -6.14954 -393.55792 -30.06243 0.07887 0.08233 3.88980 -20.56642 15.75561 
23.65402 94.47254 -1.69713 -1.08102 2.65667 -188.17290 -13.13824 10.95945 3.81528 -0.00144 0.02344 -0.00185 -28.40706 28.96674 32.20848 -1.27809 11.85509 5.70052 -168.15475 -64.61078 -141.00104 -35.65165 69.80187 -82.45280 14.94544 1.51959 -9.60910 15.51661 15.36977 1.15334 76.62980 7.95219 72.96088 4.66152 25.21125 92.58978 13.78523 18.89474 8.50853 5.26542 -14.50235 -22.11255 -20.01574 6.48033 66.02328 -25.58943 -0.08113 -0.00493 35.81314 -10.28042 -40.23973 -21.03847 6.18407 8.76180 397.30548 -8.56779 -396.33182 -29.97077 0.00561 0.01545 1.08197 -22.06240 13.88798 
22.41969 94.40217 -2.30218 -0.99357 3.30862 -188.17090 -13.18972 10.49465 3.89398 -0.00064 0.02326 -0.00182 -29.67202 29.74909 34.02097 -1.22023 13.05312 5.26510 -166.26469 -64.98486 -139.46837 -34.08263 69.07867 -83.57493 14.91759 1.70204 -9.54092 16.03029 16.23246 0.65135 77.05028 7.24794 72.56116 3.80433 25.44045 93.53449 14.32784 17.75449 8.68672 5.60803 -12.93335 -20.93744 -21.15725 5.23204 66.39654 -20.43079 -0.08936 0.00956 31.76340 -12.35411 -42.05287 -26.52740 5.87734 14.35797 404.74841 -11.24527 -398.48264 -29.30752 -0.00433 0.01470 -2.10846 -23.45567 12.01235 
21.15558 94.21169 -2.78870 -0.91667 4.04847 -188.09718 -13.24513 10.39874 3.93676 -0.00022 0.02277 -0.00171 -28.93415 30.17993 33.70152 -1.09824 14.01612 4.85275 -163.83920 -65.33866 -137.34186 -32.34438 68.23561 -84.87679 15.09861 2.90993 -9.05329 16.45003 16.88930 0.22642 77.51825 6.41155 72.29337 3.12540 25.64129 94.41030 14.36585 17.15411 8.86608 5.72158 -11.53098 -19.85000 -22.42527 4.05341 66.74488 -15.10728 -0.08898 0.02335 27.72835 -14.45586 -43.79196 -30.76679 5.25667 19.34254 410.41620 -13.61317 -400.23801 -27.67739 -0.01386 0.02323 -5.55167 -24.46843 10.42420 
19.89338 93.93717 -3.14620 -0.85322 4.83024 -187.96939 -13.30010 10.61121 3.94812 -0.00010 0.02198 -0.00157 -26.43451 30.25931 31.48413 -0.91263 14.74800 4.46592 -161.11720 -65.61692 -134.86855 -30.64839 67.32659 -86.18370 15.10561 3.28877 -8.82530 16.77304 17.34687 -0.10841 78.02228 5.50842 72.17200 2.57688 25.81310 95.20936 14.83964 16.30777 8.99504 5.74037 -10.27363 -18.80474 -23.73688 3.05674 67.03062 -9.84038 -0.08206 0.03307 23.69859 -16.50323 -45.43779 -33.85524 4.52445 23.70866 414.21857 -15.39429 -401.84088 -24.97231 -0.02120 0.03044 -9.09590 -25.23904 9.07222 
18.66703 93.66037 -3.39305 -0.76804 5.62028 -187.79216 -13.30843 11.08802 3.92049 -0.00021 0.02093 -0.00141 -24.03089 30.08501 29.23876 -0.68517 15.25594 4.10649 -158.32355 -65.78341 -132.29796 -29.13480 66.40604 -87.36766 15.21163 4.23620 -8.36331 17.00473 17.61532 -0.34353 78.55057 4.58936 72.19892 2.10651 25.95292 95.93093 15.00678 15.80329 9.09999 5.77715 -9.12109 -17.79565 -25.01365 2.28629 67.22859 -4.75625 -0.07164 0.03770 19.65407 -18.42410 -46.99472 -36.16786 3.67295 27.47362 417.59750 -15.91546 -403.28192 -41.55840 0.30004 -0.19869 7.15997 -26.82891 7.91746 
17.45807 93.46152 -3.55097 -0.65572 6.42062 -187.55957 -13.31058 12.98066 3.90669 0.00170 0.11382 0.00177 -21.51162 28.50989 26.44584 -0.48330 14.28981 3.79229 -155.56361 -65.83512 -129.76033 -27.90707 65.52008 -88.40171 15.22576 4.69466 -8.06386 17.05056 16.48771 -0.22656 79.07305 3.77987 72.33825 1.63542 26.08194 96.65070 15.41586 15.16993 9.15263 5.83258 -8.02105 -16.84730 -26.17934 1.74888 67.33145 0.09998 -0.06024 0.03875 15.58914 -20.17106 -48.46378 -37.45192 2.65083 30.64192 415.61716 -13.41800 -405.41650 -30.74310 -0.12937 -0.04623 0.85670 -26.23936 6.69301 
